<svg width="83" height="37" viewBox="0 0 83 37" fill="none" xmlns="http://www.w3.org/2000/svg">
<path d="M12.7093 1.04146C12.7093 1.09856 10.1969 8.12195 7.11346 16.6585C4.03002 25.1951 1.20353 33.075 0.832379 34.1313L0.17572 36.0728L3.91582 35.9871L7.62736 35.9015L8.14127 34.6167C8.39822 33.9029 9.88284 29.8202 11.4246 25.5377C12.9663 21.2551 14.251 17.8005 14.2796 17.8291C14.3367 17.8862 14.1368 21.5121 13.8228 25.9088C13.5373 30.3056 13.2803 34.3883 13.2803 34.9593V36.0442H16.9633C20.1895 36.0442 20.6749 35.9871 20.8462 35.5303C20.9318 35.2733 23.7298 27.5362 27.0131 18.4001C30.3249 9.23541 33.0943 1.55537 33.1799 1.32696C33.3227 0.98436 32.7517 0.927258 29.554 0.98436L25.7854 1.07001L24.3864 4.92431C23.6156 7.03703 22.188 11.0055 21.2173 13.7178C20.2752 16.4301 19.4187 18.5999 19.3616 18.5143C19.2474 18.4001 19.904 7.15124 20.3037 2.84013L20.475 0.927258H16.5922C14.4509 0.927258 12.7093 0.98436 12.7093 1.04146Z" fill="#8B8B8B"/>
<path d="M34.5514 1.4126C34.4658 1.6981 31.6964 9.37815 28.4131 18.4857C25.1298 27.5933 22.3604 35.2733 22.2747 35.5303C22.0749 36.0156 22.3889 36.0442 26.5859 36.0442H31.1254L37.2066 19.1138C40.547 9.83496 43.3449 1.92651 43.4591 1.55535L43.6019 0.927242H39.1766C35.2366 0.927242 34.7227 0.984341 34.5514 1.4126Z" fill="#8B8B8B"/>
<path d="M44.9434 1.6981C43.8013 4.66734 32.6953 35.6445 32.6953 35.8729C32.6953 35.9585 34.6938 36.0156 37.1777 35.9871L41.6315 35.9014L44.0868 29.0494C45.4287 25.2807 46.5707 22.4542 46.6278 22.7683C46.6564 23.0823 46.4565 26.1943 46.171 29.6775L45.6571 36.0442H50.1395H54.5934L54.7932 34.3883C54.8789 33.5032 55.2215 29.1636 55.5641 24.7668L56.1636 16.7727L60.903 9.6351C63.5011 5.69515 65.8708 2.15491 66.1848 1.6981L66.6987 0.927242H62.616H58.5333L54.1366 7.49383C51.7098 11.1197 49.6827 14.0033 49.6256 13.9748C49.5685 13.9177 50.5678 11.0055 51.824 7.52238C53.0802 4.03923 54.108 1.12709 54.108 1.06999C54.108 0.984341 52.1095 0.927242 49.6827 0.927242H45.2574L44.9434 1.6981Z" fill="#8B8B8B"/>
<path d="M66.5841 3.69669C66.0131 5.23841 63.2438 12.9185 60.4173 20.7698C57.5908 28.6212 55.1925 35.2734 55.1069 35.5589C54.907 36.0157 55.3353 36.0443 62.7013 35.9872L70.4955 35.9015L71.5805 32.9037C72.18 31.2478 72.751 29.7061 72.8367 29.4206C72.9509 29.0209 72.6368 28.9638 69.896 28.9923C68.2115 28.9923 66.8125 28.8781 66.7554 28.7354C66.6983 28.5926 67.2123 26.9367 67.8975 25.0524L69.1537 21.6263L72.1515 21.5407L75.1778 21.455L76.3484 18.1717C77.005 16.373 77.5189 14.7457 77.5189 14.6029C77.5189 14.4602 76.2342 14.346 74.6639 14.346C73.0936 14.346 71.8089 14.2889 71.8089 14.2318C71.8089 14.1747 72.1229 13.2325 72.5226 12.1761C72.9223 11.0912 73.4362 9.66371 73.6932 8.97851L74.15 7.77939H77.4047C79.2034 7.77939 80.6595 7.75084 80.6595 7.69374C80.6595 7.63664 81.1734 6.20912 81.8015 4.46755C82.4296 2.75452 82.9435 1.26991 82.9435 1.12716C82.9435 1.01295 79.4889 0.927303 75.2635 0.927303H67.5834L66.5841 3.69669Z" fill="#8B8B8B"/>
</svg>
