<svg width="166" height="37" viewBox="0 0 166 37" fill="none" xmlns="http://www.w3.org/2000/svg">
<g clip-path="url(#clip0_13_108)">
<path d="M164.86 16.8272V13.9336H161.267V9.43501L161.146 9.47226L157.77 10.5049L157.704 10.5251V13.9337H152.377V12.0349C152.377 11.1507 152.574 10.4741 152.964 10.0228C153.351 9.57699 153.904 9.35033 154.61 9.35033C155.118 9.35033 155.643 9.46987 156.172 9.7056L156.305 9.7648V6.71738L156.242 6.69446C155.749 6.51715 155.078 6.42786 154.246 6.42786C153.198 6.42786 152.246 6.65594 151.415 7.10798C150.584 7.56065 149.931 8.20687 149.473 9.0285C149.016 9.84916 148.785 10.797 148.785 11.8459V13.9336H146.283V16.8272H148.785V29.0177H152.377V16.8272H157.704V24.5741C157.704 27.7646 159.209 29.3814 162.177 29.3814C162.665 29.3814 163.178 29.3243 163.702 29.2124C164.236 29.0975 164.599 28.9827 164.813 28.8601L164.86 28.8321V25.9117L164.714 26.0083C164.519 26.1382 164.276 26.2444 163.992 26.3233C163.706 26.4037 163.467 26.444 163.282 26.444C162.587 26.444 162.072 26.2566 161.753 25.8869C161.431 25.5138 161.267 24.8614 161.267 23.9487V16.8272H164.86ZM138.261 26.4445C136.958 26.4445 135.93 26.0122 135.205 25.1606C134.476 24.3048 134.107 23.0846 134.107 21.5343C134.107 19.9348 134.476 18.683 135.206 17.812C135.93 16.9468 136.948 16.5076 138.232 16.5076C139.477 16.5076 140.469 16.927 141.179 17.7549C141.893 18.587 142.255 19.8288 142.255 21.4469C142.255 23.0849 141.914 24.3431 141.243 25.1848C140.576 26.0201 139.573 26.4445 138.261 26.4445ZM138.421 13.5702C135.934 13.5702 133.958 14.299 132.549 15.7365C131.142 17.1741 130.428 19.1635 130.428 21.65C130.428 24.0117 131.125 25.9114 132.499 27.2954C133.873 28.6798 135.743 29.3811 138.057 29.3811C140.468 29.3811 142.405 28.6421 143.813 27.1847C145.22 25.729 145.934 23.7583 145.934 21.3299C145.934 18.9313 145.264 17.0174 143.944 15.6427C142.622 14.2673 140.764 13.5702 138.421 13.5702ZM124.637 13.5702C122.945 13.5702 121.545 14.003 120.476 14.8563C119.4 15.7146 118.855 16.8404 118.855 18.2028C118.855 18.9109 118.973 19.5399 119.204 20.0735C119.437 20.6087 119.798 21.08 120.278 21.4756C120.753 21.8679 121.488 22.2789 122.461 22.697C123.279 23.0337 123.889 23.3184 124.277 23.5428C124.656 23.7628 124.924 23.9839 125.076 24.1992C125.224 24.41 125.299 24.6984 125.299 25.0543C125.299 26.0677 124.54 26.5608 122.978 26.5608C122.399 26.5608 121.738 26.4398 121.015 26.2014C120.296 25.9666 119.618 25.6227 119.004 25.1818L118.854 25.0748V28.5331L118.909 28.5585C119.417 28.7931 120.058 28.991 120.813 29.1466C121.567 29.3025 122.252 29.3817 122.847 29.3817C124.683 29.3817 126.162 28.9469 127.241 28.0885C128.326 27.2242 128.876 26.0718 128.876 24.6624C128.876 23.6457 128.58 22.7737 127.996 22.0705C127.417 21.3731 126.41 20.7327 125.006 20.1667C123.888 19.7179 123.172 19.3453 122.876 19.0592C122.591 18.7829 122.447 18.3922 122.447 17.8973C122.447 17.4586 122.625 17.1072 122.992 16.8226C123.361 16.5366 123.875 16.3911 124.52 16.3911C125.119 16.3911 125.731 16.4857 126.34 16.6709C126.949 16.8562 127.483 17.1043 127.929 17.4079L128.076 17.5081V14.2277L128.02 14.2035C127.608 14.027 127.065 13.8759 126.406 13.7534C125.75 13.6316 125.154 13.5702 124.637 13.5702ZM109.491 26.4445C108.187 26.4445 107.159 26.0122 106.435 25.1606C105.706 24.3048 105.337 23.0849 105.337 21.5343C105.337 19.9348 105.706 18.683 106.436 17.812C107.16 16.9468 108.178 16.5076 109.462 16.5076C110.707 16.5076 111.698 16.927 112.409 17.7549C113.123 18.587 113.485 19.8288 113.485 21.4469C113.485 23.0849 113.144 24.3431 112.472 25.1848C111.805 26.0201 110.803 26.4445 109.491 26.4445ZM109.651 13.5702C107.163 13.5702 105.187 14.299 103.779 15.7365C102.372 17.1741 101.658 19.1635 101.658 21.65C101.658 24.0127 102.355 25.9114 103.729 27.2954C105.103 28.6798 106.973 29.3811 109.287 29.3811C111.698 29.3811 113.635 28.6421 115.043 27.1847C116.45 25.729 117.164 23.7583 117.164 21.3299C117.164 18.9313 116.494 17.0174 115.173 15.6427C113.852 14.2673 111.994 13.5702 109.651 13.5702ZM96.2051 16.5458V13.9336H92.6569V29.0174H96.2051V21.3014C96.2051 19.9894 96.5025 18.9115 97.0896 18.0974C97.6691 17.293 98.4414 16.8853 99.3843 16.8853C99.7039 16.8853 100.063 16.938 100.451 17.0423C100.836 17.1459 101.114 17.2584 101.279 17.3768L101.428 17.4849V13.9078L101.37 13.8831C101.04 13.7427 100.572 13.6719 99.9808 13.6719C99.0892 13.6719 98.2913 13.9584 97.6078 14.5225C97.0079 15.0183 96.5743 15.6981 96.2428 16.5458H96.2051ZM86.3028 13.5702C84.675 13.5702 83.223 13.9192 81.9881 14.6073C80.7505 15.297 79.7934 16.2816 79.1423 17.5336C78.494 18.7826 78.1648 20.2415 78.1648 21.8685C78.1648 23.2937 78.484 24.6016 79.1148 25.7543C79.7459 26.9089 80.6391 27.8122 81.7698 28.4387C82.899 29.0644 84.204 29.3816 85.6489 29.3816C87.3351 29.3816 88.7748 29.0445 89.9291 28.3796L89.9757 28.3529V25.1022L89.8266 25.2111C89.3037 25.592 88.7194 25.896 88.0907 26.115C87.4636 26.3338 86.8918 26.4445 86.3905 26.4445C84.9982 26.4445 83.8806 26.0088 83.0693 25.1499C82.2562 24.29 81.844 23.0824 81.844 21.5628C81.844 20.0337 82.2739 18.795 83.1212 17.8811C83.9659 16.9698 85.0856 16.5076 86.449 16.5076C87.6153 16.5076 88.7517 16.9025 89.8269 17.6824L89.9757 17.7905V14.3654L89.9276 14.3383C89.523 14.1118 88.9712 13.9248 88.2862 13.783C87.604 13.6415 86.9367 13.5702 86.3028 13.5702ZM75.7211 13.9337H72.173V29.0174H75.7211V13.9337ZM73.9834 7.50797C73.3994 7.50797 72.89 7.70677 72.4716 8.10071C72.0514 8.49576 71.8383 8.99316 71.8383 9.58017C71.8383 10.1579 72.0488 10.6463 72.4651 11.0308C72.8786 11.4143 73.3895 11.6086 73.9835 11.6086C74.5774 11.6086 75.0902 11.4143 75.5087 11.0315C75.9298 10.6463 76.1434 10.1581 76.1434 9.58017C76.1434 9.01369 75.9355 8.52139 75.526 8.11662C75.1168 7.71266 74.5976 7.50797 73.9834 7.50797ZM65.1305 12.8208V29.0174H68.7515V7.96971H63.7398L57.3696 23.6033L51.1877 7.96971H45.9719V29.0172H49.3748V12.8192H49.4916L56.0195 29.0174H58.5875L65.0136 12.8208H65.1305Z" fill="#8B8B8B"/>
<path d="M17.0133 17.6279H0.321671V0.936279H17.0133V17.6279Z" fill="#8B8B8B"/>
<path d="M35.4424 17.6279H18.7511V0.936279H35.4424V17.6279Z" fill="#8B8B8B"/>
<path d="M17.0128 36.0637H0.321671V19.3723H17.0128V36.0637Z" fill="#8B8B8B"/>
<path d="M35.4424 36.0637H18.7511V19.3723H35.4424V36.0637Z" fill="#8B8B8B"/>
</g>
<defs>
<clipPath id="clip0_13_108">
<rect width="165.184" height="35.1455" fill="white" transform="translate(0.321533 0.927246)"/>
</clipPath>
</defs>
</svg>
