<svg width="106" height="37" viewBox="0 0 106 37" fill="none" xmlns="http://www.w3.org/2000/svg">
<path d="M25.0087 19.4997C24.9931 16.6201 26.2915 14.4466 28.9195 12.8459C27.449 10.7353 25.2277 9.57398 22.2947 9.34644C19.5181 9.12674 16.4833 10.9706 15.3727 10.9706C14.1994 10.9706 11.5089 9.4249 9.39706 9.4249C5.03267 9.49552 0.394531 12.9166 0.394531 19.8763C0.394531 21.9321 0.769962 24.0558 1.52082 26.2476C2.52197 29.1272 6.1355 36.189 9.90545 36.0713C11.8765 36.0242 13.2687 34.6668 15.8341 34.6668C18.3214 34.6668 19.6119 36.0713 21.8097 36.0713C25.611 36.0164 28.8804 29.598 29.8346 26.7105C24.735 24.3017 25.0087 19.6488 25.0087 19.4997ZM20.5818 6.61589C22.717 4.07365 22.5215 1.75897 22.4589 0.927246C20.574 1.0371 18.3918 2.21406 17.1481 3.66564C15.7794 5.21923 14.9738 7.1416 15.1458 9.30721C17.1873 9.46413 19.0488 8.41272 20.5818 6.61589Z" fill="#8B8B8B"/>
<path d="M41.8221 24.0144L39.7729 30.2514H37.1388L43.8457 10.43H46.9195L53.6521 30.2514H50.9283L48.8193 24.0144H41.8221ZM48.2942 22.0125L46.3646 16.307C45.9248 15.0124 45.6345 13.8379 45.3399 12.6891H45.2844C44.9899 13.8636 44.6697 15.0682 44.2897 16.277L42.36 22.0082L48.2942 22.0125ZM55.6501 20.6622C55.6501 18.8404 55.5946 17.3658 55.5305 16.0155H57.8444L57.964 18.4589H58.0195C59.074 16.7228 60.7432 15.694 63.0571 15.694C66.4853 15.694 69.0597 18.6046 69.0597 22.9298C69.0597 28.0481 65.9559 30.5729 62.6174 30.5729C60.7432 30.5729 59.1039 29.7499 58.2543 28.3396H58.1988V36.0727H55.6501V20.6622ZM58.1945 24.4559C58.1945 24.8417 58.25 25.1889 58.3141 25.5147C58.7837 27.3065 60.3334 28.5453 62.182 28.5453C64.9057 28.5453 66.4896 26.312 66.4896 23.0456C66.4896 20.1907 64.9954 17.7559 62.2716 17.7559C60.517 17.7559 58.8776 19.0204 58.3738 20.9623C58.2842 21.2838 58.1988 21.6696 58.1988 22.0211L58.1945 24.4559ZM71.7236 20.6622C71.7236 18.8404 71.6681 17.3658 71.6041 16.0155H73.918L74.0375 18.4589H74.093C75.1475 16.7228 76.8168 15.694 79.1307 15.694C82.5589 15.694 85.1332 18.6046 85.1332 22.9298C85.1332 28.0481 82.0295 30.5729 78.691 30.5729C76.8168 30.5729 75.1774 29.7499 74.3279 28.3396H74.2724V36.0727H71.7236V20.6622ZM74.2724 24.4559C74.2724 24.8417 74.3279 25.1889 74.3919 25.5147C74.8615 27.3065 76.4112 28.5453 78.2598 28.5453C80.9835 28.5453 82.5674 26.312 82.5674 23.0456C82.5674 20.1907 81.0732 17.7559 78.3494 17.7559C76.5948 17.7559 74.9554 19.0204 74.4517 20.9623C74.362 21.2838 74.2766 21.6696 74.2766 22.0211L74.2724 24.4559ZM87.8015 9.37122H90.3801V30.2471H87.8015V9.37122ZM95.5629 23.6028C95.6184 27.1007 97.8469 28.5453 100.421 28.5453C102.266 28.5453 103.38 28.2238 104.345 27.8123L104.784 29.6641C103.879 30.0757 102.325 30.5472 100.071 30.5472C95.708 30.5472 93.0996 27.6666 93.0996 23.3714C93.0996 19.0762 95.6184 15.694 99.7467 15.694C104.375 15.694 105.604 19.7792 105.604 22.3983C105.604 22.9298 105.549 23.3371 105.514 23.6028H95.5629ZM103.119 21.751C103.149 20.1049 102.445 17.5458 99.5461 17.5458C96.9376 17.5458 95.7977 19.9592 95.5928 21.751H103.119Z" fill="#8B8B8B"/>
</svg>
