<svg width="70" height="55" viewBox="0 0 70 55" fill="none" xmlns="http://www.w3.org/2000/svg">
<g clip-path="url(#clip0_13_98)">
<path d="M12.8206 54.4434V50.8515C12.8206 49.4774 11.9849 48.5777 10.5502 48.5777C9.83287 48.5777 9.05286 48.8148 8.51661 49.596C8.09874 48.9404 7.49981 48.5777 6.6014 48.5777C6.00246 48.5777 5.40353 48.759 4.92995 49.4147V48.6963H3.67636V54.4434H4.92995V51.2699C4.92995 50.2516 5.46621 49.7704 6.30193 49.7704C7.13766 49.7704 7.55552 50.3074 7.55552 51.2699V54.4434H8.80911V51.2699C8.80911 50.2516 9.40805 49.7704 10.1811 49.7704C11.0168 49.7704 11.4347 50.3074 11.4347 51.2699V54.4434H12.8206ZM31.4155 48.6963H29.3819V46.9595H28.1283V48.6963H26.9931V49.8331H28.1283V52.4696C28.1283 53.7878 28.6646 54.562 30.0992 54.562C30.6355 54.562 31.2344 54.3807 31.6523 54.1435L31.2901 53.0624C30.928 53.2996 30.5101 53.3624 30.2107 53.3624C29.6117 53.3624 29.3749 52.9997 29.3749 52.4068V49.8331H31.4085V48.6963H31.4155ZM42.0571 48.5707C41.3397 48.5707 40.8592 48.9334 40.5597 49.4077V48.6893H39.3061V54.4365H40.5597V51.2002C40.5597 50.2446 40.9776 49.7006 41.7576 49.7006C41.9944 49.7006 42.2939 49.7634 42.5376 49.8192L42.8998 48.6195C42.649 48.5707 42.2939 48.5707 42.0571 48.5707ZM25.9763 49.1705C25.3774 48.7521 24.5416 48.5707 23.6432 48.5707C22.2086 48.5707 21.2545 49.2891 21.2545 50.426C21.2545 51.3815 21.9718 51.9256 23.2254 52.0999L23.8243 52.1627C24.479 52.2813 24.8411 52.4626 24.8411 52.7625C24.8411 53.181 24.3606 53.4809 23.5248 53.4809C22.6891 53.4809 22.0275 53.181 21.6096 52.8811L21.0107 53.8366C21.6654 54.3179 22.5638 54.555 23.4622 54.555C25.1336 54.555 26.0947 53.7739 26.0947 52.6998C26.0947 51.6814 25.3147 51.1444 24.1238 50.9631L23.5248 50.9003C22.9886 50.8375 22.5707 50.7189 22.5707 50.3632C22.5707 49.9447 22.9886 49.7076 23.6502 49.7076C24.3675 49.7076 25.0849 50.0075 25.447 50.1889L25.9763 49.1705ZM59.3287 48.5707C58.6114 48.5707 58.1309 48.9334 57.8314 49.4077V48.6893H56.5778V54.4365H57.8314V51.2002C57.8314 50.2446 58.2492 49.7006 59.0293 49.7006C59.266 49.7006 59.5655 49.7634 59.8093 49.8192L60.1714 48.6335C59.9277 48.5707 59.5725 48.5707 59.3287 48.5707ZM43.3107 51.5699C43.3107 53.3066 44.5085 54.562 46.3611 54.562C47.1968 54.562 47.7957 54.3807 48.3947 53.9064L47.7957 52.8881C47.3152 53.2508 46.8416 53.4251 46.2984 53.4251C45.2816 53.4251 44.5642 52.7067 44.5642 51.5699C44.5642 50.4888 45.2816 49.7704 46.2984 49.7146C46.8346 49.7146 47.3152 49.8959 47.7957 50.2516L48.3947 49.2333C47.7957 48.7521 47.1968 48.5777 46.3611 48.5777C44.5085 48.5707 43.3107 49.8331 43.3107 51.5699ZM54.9063 51.5699V48.6963H53.6528V49.4147C53.2349 48.8776 52.636 48.5777 51.8559 48.5777C50.2402 48.5777 48.9866 49.8331 48.9866 51.5699C48.9866 53.3066 50.2402 54.562 51.8559 54.562C52.6917 54.562 53.2906 54.2621 53.6528 53.7251V54.4434H54.9063V51.5699ZM50.3029 51.5699C50.3029 50.5515 50.9575 49.7146 52.037 49.7146C53.0538 49.7146 53.7712 50.4957 53.7712 51.5699C53.7712 52.5882 53.0538 53.4251 52.037 53.4251C50.9645 53.3624 50.3029 52.5812 50.3029 51.5699ZM35.3016 48.5707C33.6302 48.5707 32.4323 49.7704 32.4323 51.5629C32.4323 53.3624 33.6302 54.555 35.3643 54.555C36.2 54.555 37.0357 54.3179 37.6974 53.7739L37.0984 52.8741C36.6179 53.2368 36.0189 53.474 35.427 53.474C34.647 53.474 33.8739 53.1113 33.6928 52.0999H37.9342C37.9342 51.9186 37.9342 51.8 37.9342 51.6187C37.9899 49.7704 36.9104 48.5707 35.3016 48.5707ZM35.3016 49.6518C36.0816 49.6518 36.6179 50.1331 36.7363 51.0258H33.7486C33.867 50.2516 34.4032 49.6518 35.3016 49.6518ZM66.4463 51.5699V46.4225H65.1927V49.4147C64.7749 48.8776 64.1759 48.5777 63.3959 48.5777C61.7802 48.5777 60.5266 49.8331 60.5266 51.5699C60.5266 53.3066 61.7802 54.562 63.3959 54.562C64.2317 54.562 64.8306 54.2621 65.1927 53.7251V54.4434H66.4463V51.5699ZM61.8429 51.5699C61.8429 50.5515 62.4975 49.7146 63.577 49.7146C64.5938 49.7146 65.3111 50.4957 65.3111 51.5699C65.3111 52.5882 64.5938 53.4251 63.577 53.4251C62.4975 53.3624 61.8429 52.5812 61.8429 51.5699ZM19.8755 51.5699V48.6963H18.6219V49.4147C18.2041 48.8776 17.6051 48.5777 16.8251 48.5777C15.2094 48.5777 13.9558 49.8331 13.9558 51.5699C13.9558 53.3066 15.2094 54.562 16.8251 54.562C17.6608 54.562 18.2598 54.2621 18.6219 53.7251V54.4434H19.8755V51.5699ZM15.2163 51.5699C15.2163 50.5515 15.871 49.7146 16.9505 49.7146C17.9673 49.7146 18.6846 50.4957 18.6846 51.5699C18.6846 52.5882 17.9673 53.4251 16.9505 53.4251C15.871 53.3624 15.2163 52.5812 15.2163 51.5699Z" fill="#8B8B8B"/>
<path d="M44.3906 5.04822H25.559V38.9316H44.3906V5.04822Z" fill="#8B8B8B"/>
<path d="M26.8133 21.99C26.8133 15.1059 30.0448 8.99601 35.0034 5.0483C31.3541 2.1747 26.7506 0.437988 21.7293 0.437988C9.83412 0.437988 0.209351 10.0771 0.209351 21.99C0.209351 33.9028 9.83412 43.5419 21.7293 43.5419C26.7506 43.5419 31.3541 41.8052 35.0034 38.9316C30.0378 35.0397 26.8133 28.874 26.8133 21.99Z" fill="#8B8B8B"/>
<path d="M69.7965 21.99C69.7965 33.9028 60.1718 43.5419 48.2766 43.5419C43.2553 43.5419 38.6518 41.8052 35.0025 38.9316C40.0238 34.977 43.1926 28.874 43.1926 21.99C43.1926 15.1059 39.9611 8.99601 35.0025 5.0483C38.6449 2.1747 43.2483 0.437988 48.2696 0.437988C60.1718 0.437988 69.7965 10.1399 69.7965 21.99Z" fill="#A9A9A9"/>
</g>
<defs>
<clipPath id="clip0_13_98">
<rect width="69.5881" height="54.1241" fill="white" transform="translate(0.209351 0.437988)"/>
</clipPath>
</defs>
</svg>
