<svg width="110" height="37" viewBox="0 0 110 37" fill="none" xmlns="http://www.w3.org/2000/svg">
<g clip-path="url(#clip0_13_114)">
<path d="M14.1781 0.578735H15.138C18.4706 0.651001 21.7489 1.98792 24.1034 4.35463C23.2341 5.23988 22.3466 6.08901 21.4953 6.97427C20.1731 5.78188 18.5793 4.86049 16.8406 4.53529C14.2687 3.9933 11.4976 4.48109 9.34224 5.94448C6.98769 7.48013 5.39384 10.0817 5.04972 12.8639C4.66937 15.61 5.44818 18.5007 7.24126 20.6325C8.96189 22.7102 11.5881 24.0109 14.3049 24.1013C16.8406 24.2458 19.4849 23.469 21.3323 21.6984C22.7813 20.4519 23.4514 18.5549 23.6687 16.7121C20.6622 16.7121 17.6556 16.7302 14.649 16.7121V12.9904H27.3092C27.9613 16.9831 27.0194 21.4816 23.9766 24.3361C21.9481 26.3596 19.1408 27.552 16.2791 27.7868C13.508 28.0578 10.6463 27.5339 8.18307 26.197C5.23084 24.6252 2.87629 21.9694 1.71713 18.8439C0.630414 15.9714 0.612302 12.7194 1.62657 9.82877C2.55027 7.19106 4.32524 4.86049 6.60734 3.23451C8.79888 1.62659 11.4613 0.741334 14.1781 0.578735Z" fill="#8B8B8B"/>
<path d="M86.8073 1.51831H90.6833V27.3172C89.3973 27.3172 88.0933 27.3353 86.8073 27.2992C86.8255 18.7176 86.8073 10.1179 86.8073 1.51831Z" fill="#8B8B8B"/>
<path d="M35.9319 10.4612C38.3226 10.0095 40.9126 10.5154 42.8868 11.9426C44.6799 13.2073 45.9296 15.1946 46.31 17.3626C46.799 19.8738 46.1832 22.6199 44.5531 24.6072C42.7963 26.8294 39.9165 28.0218 37.1091 27.8411C34.5372 27.6966 32.0378 26.4139 30.5164 24.3181C28.7958 22.0056 28.3792 18.8259 29.321 16.116C30.2628 13.2073 32.9253 10.9851 35.9319 10.4612ZM36.4752 13.8938C35.4972 14.1467 34.5916 14.7068 33.9395 15.5017C32.1827 17.5974 32.2914 21.012 34.2293 22.9632C35.3342 24.0833 37.0005 24.6072 38.54 24.3001C39.9708 24.0472 41.2205 23.0896 41.9088 21.825C43.1042 19.6751 42.76 16.7122 40.9307 15.032C39.7535 13.948 38.0328 13.4963 36.4752 13.8938Z" fill="#8B8B8B"/>
<path d="M55.1291 10.4613C57.864 9.93735 60.8525 10.6961 62.8991 12.6112C66.2317 15.5922 66.594 21.1747 63.7504 24.6073C62.0298 26.7753 59.2405 27.9677 56.4875 27.8412C53.8613 27.769 51.2713 26.4682 49.7137 24.3183C47.9568 21.9515 47.5765 18.6996 48.5726 15.9354C49.5688 13.117 52.1769 10.9671 55.1291 10.4613ZM55.6725 13.8939C54.6944 14.1468 53.7889 14.7069 53.1368 15.4838C51.3981 17.5433 51.4705 20.9037 53.3361 22.8729C54.4409 24.0473 56.1615 24.6254 57.7554 24.3002C59.1681 24.0292 60.4359 23.0897 61.1242 21.8251C62.3014 19.6571 61.9573 16.6942 60.1099 15.014C58.9326 13.93 57.212 13.4964 55.6725 13.8939Z" fill="#8B8B8B"/>
<path d="M71.4122 11.5091C73.4951 10.2083 76.2662 9.84697 78.5121 10.9671C79.2185 11.2742 79.7981 11.7981 80.3595 12.3221C80.3776 11.8343 80.3595 11.3284 80.3776 10.8226C81.5911 10.8406 82.8046 10.8226 84.0362 10.8406V26.7753C84.0181 29.1781 83.4023 31.7255 81.6636 33.4779C79.7618 35.411 76.8458 36.0072 74.2196 35.6098C71.4122 35.1942 68.9671 33.1527 67.8804 30.5692C68.9671 30.0453 70.1082 29.6298 71.2311 29.142C71.865 30.6234 73.151 31.8881 74.7629 32.1771C76.3749 32.4662 78.2404 32.0687 79.2909 30.7318C80.4139 29.3588 80.4139 27.4798 80.3595 25.7997C79.5264 26.6127 78.5664 27.3353 77.4073 27.6063C74.8897 28.3109 72.1186 27.4437 70.1806 25.7455C68.2246 24.0472 67.0654 21.4276 67.1741 18.826C67.2284 15.8812 68.8947 13.0447 71.4122 11.5091ZM75.1614 13.8216C74.0566 14.0023 73.0242 14.6165 72.3178 15.4656C70.6153 17.4891 70.6153 20.723 72.336 22.7103C73.314 23.8846 74.8897 24.535 76.4111 24.3724C77.842 24.2279 79.1641 23.3246 79.8705 22.078C81.0659 19.9642 80.8667 17.0916 79.2547 15.2488C78.2585 14.1107 76.6647 13.5506 75.1614 13.8216Z" fill="#8B8B8B"/>
<path d="M95.3368 12.4305C97.5103 10.4071 100.861 9.72055 103.65 10.7865C106.295 11.7801 107.979 14.2914 108.83 16.8749C104.9 18.5009 100.988 20.1088 97.0575 21.7348C97.6008 22.7645 98.434 23.704 99.5569 24.0834C101.133 24.6435 103.016 24.4447 104.338 23.3969C104.864 22.9994 105.28 22.4755 105.679 21.9696C106.675 22.6381 107.671 23.2885 108.667 23.9569C107.254 26.0707 104.882 27.5522 102.328 27.787C99.5026 28.1303 96.496 27.0463 94.6667 24.8422C91.6601 21.3734 91.9499 15.556 95.3368 12.4305ZM97.2748 15.7728C96.659 16.6581 96.4054 17.7421 96.4235 18.808C99.0498 17.724 101.676 16.64 104.302 15.538C103.868 14.5262 102.817 13.912 101.748 13.7494C100.028 13.4422 98.2347 14.3636 97.2748 15.7728Z" fill="#8B8B8B"/>
</g>
<defs>
<clipPath id="clip0_13_114">
<rect width="108.249" height="35.8484" fill="white" transform="translate(0.883667 0.575806)"/>
</clipPath>
</defs>
</svg>
