<svg width="94" height="41" viewBox="0 0 94 41" fill="none" xmlns="http://www.w3.org/2000/svg">
<g clip-path="url(#clip0_13_124)">
<path d="M21.027 40.8844C32.3475 40.8844 41.5416 31.7683 41.5416 20.5045C41.5416 9.24013 32.3475 0.115601 21.027 0.115601C9.68908 0.115601 0.512451 9.24013 0.512451 20.5045C0.512451 31.7683 9.68908 40.8844 21.027 40.8844Z" fill="#8B8B8B"/>
<path d="M20.2039 11.5568V29.4432H25.9219V27.8349H21.8519V11.5568H20.2039Z" fill="#A9A9A9"/>
<path d="M14.4772 16.4371C15.8376 16.4371 16.9342 15.3371 16.9342 13.9938C16.9342 12.6494 15.8376 11.5452 14.4772 11.5452C13.1169 11.5452 12.0203 12.6494 12.0203 13.9938C12.0203 15.3381 13.1169 16.4371 14.4772 16.4371Z" fill="#A9A9A9"/>
<path d="M21.8505 3.44306C21.636 3.43251 21.2284 3.41931 21.0336 3.41931C11.5645 3.41931 3.85815 11.0855 3.85815 20.4961C3.85815 25.0671 5.64422 29.3514 8.87932 32.5733C12.1277 35.7877 16.4381 37.5639 21.0336 37.5639C25.6116 37.5639 29.921 35.7877 33.1635 32.5733C36.4065 29.3514 38.2011 25.0671 38.2011 20.4961V19.7365H37.5063H25.9369V21.3084H36.5652C36.5652 21.3427 36.5652 21.5095 36.5578 21.5528C36.0175 29.5979 29.2607 35.9698 21.0336 35.9698C16.8691 35.9698 12.9642 34.3594 10.0253 31.4347C7.07679 28.5222 5.45208 24.6422 5.45208 20.4955C5.45208 16.3727 7.07679 12.4726 10.0253 9.55107C12.9642 6.63219 16.8691 5.02179 21.0336 5.02179C21.213 5.02179 21.6493 5.02179 21.8505 5.03235V3.44306Z" fill="#A9A9A9"/>
<path d="M56.9701 6.97844H50.8056V33.5165H69.7395V28.3507H56.9701V6.97844ZM83.3004 23.4033H88.321V28.0435C87.3953 28.3939 85.5902 28.7434 83.8726 28.7434C78.3243 28.7434 76.4762 25.9411 76.4762 20.2496C76.4762 14.8219 78.2362 11.6217 83.7844 11.6217C86.8677 11.6217 88.6289 12.5855 90.08 14.425L93.9128 10.9208C91.5784 7.59547 87.4824 6.58838 83.6528 6.58838C75.0202 6.58838 70.4858 11.2734 70.4858 20.2052C70.4858 29.0938 74.5808 33.9103 83.6093 33.9103C87.7478 33.9103 91.7992 32.8599 93.9998 31.3276V18.4539H83.3004V23.4033Z" fill="#8B8B8B"/>
</g>
<defs>
<clipPath id="clip0_13_124">
<rect width="93.487" height="40.7688" fill="white" transform="translate(0.512451 0.115601)"/>
</clipPath>
</defs>
</svg>
