<svg width="162" height="37" viewBox="0 0 162 37" fill="none" xmlns="http://www.w3.org/2000/svg">
<path d="M87.878 12.525H91.4699V22.5165C91.4699 27.5881 88.6748 30.497 83.8055 30.497C78.9869 30.497 76.2171 27.6387 76.2171 22.6556V12.5376H79.809V22.5418C79.809 25.5013 81.2634 27.0822 83.8561 27.0822C86.4489 27.0822 87.878 25.5392 87.878 22.6682V12.525ZM67.6421 19.6581H59.5224V12.525H55.9305V30.2314H59.5224V23.035H67.6294V30.2314H71.2213V12.525H67.6294V19.6581H67.6421ZM157.591 12.525V30.2061H161.132V12.525H157.591ZM143.489 22.605H150.028V19.3799H143.489V15.7501H152.975V12.5376H139.948V30.2188H153.316V26.9937H143.489V22.605ZM129.4 24.6918L125.378 12.5123H122.444L118.422 24.6918L114.514 12.525H110.694L116.866 30.2188H119.838L123.86 18.5958L127.882 30.2188H130.879L137.039 12.525H133.308L129.4 24.6918ZM104.307 12.6262L112.035 30.2188H108.266L106.672 26.5384H98.5651L98.4513 26.7913L96.9589 30.2188H93.2911L101.095 12.525H104.231L104.307 12.6262ZM105.167 22.9212L102.612 16.9895L100.07 22.9212L99.8931 23.3259H105.332L105.167 22.9212Z" fill="#8B8B8B"/>
<path d="M20.57 28.3469C20.6206 28.309 20.6333 28.2331 20.608 28.1699C17.1205 20.6741 12.7699 13.6112 7.64433 7.1245C7.64433 7.1245 3.57185 10.9946 3.86274 14.8774C3.93088 15.7726 4.17484 16.6455 4.58066 17.4463C4.98648 18.2471 5.54621 18.96 6.22781 19.5443C9.78175 23.0097 18.382 27.3857 20.3803 28.3849C20.4436 28.4102 20.5194 28.3975 20.57 28.3469ZM19.2421 31.3065C19.2168 31.2306 19.1409 31.18 19.0523 31.18L4.73541 31.6732C6.29105 34.443 8.90908 36.5931 11.6283 35.9354C13.5128 35.4675 17.7623 32.4953 19.1662 31.4835C19.28 31.395 19.2421 31.3191 19.2421 31.3065ZM19.4571 30.0291C19.5329 29.9152 19.4065 29.8141 19.4065 29.8141C13.1207 25.5645 0.928528 19.0384 0.928528 19.0384C0.524415 20.2771 0.411366 21.5922 0.598169 22.8816C0.784972 24.1711 1.26659 25.4001 2.0056 26.4731C2.74461 27.5461 3.72111 28.4343 4.85919 29.0686C5.99726 29.7028 7.26628 30.0661 8.56759 30.1302C8.7826 30.1682 17.0793 30.1302 19.3053 30.1176C19.3685 30.1049 19.4191 30.0797 19.4571 30.0291ZM20.4056 0.939894C19.7859 0.990483 18.1038 1.38255 18.1038 1.38255C14.3095 2.35641 13.4116 5.80917 13.4116 5.80917C12.716 7.97188 13.4242 10.3623 13.4242 10.3623C14.689 15.9777 20.9115 25.223 22.2521 27.1581C22.3407 27.2593 22.4166 27.2213 22.4166 27.2213C22.4925 27.196 22.5557 27.1328 22.5557 27.0443C24.6299 6.4036 20.4056 0.939894 20.4056 0.939894ZM25.1484 27.196C25.2243 27.2213 25.3128 27.196 25.3508 27.1201C26.7293 25.1345 32.914 15.9398 34.1787 10.3496C34.1787 10.3496 34.8617 7.64305 34.204 5.79652C34.204 5.79652 33.2681 2.29317 29.4738 1.36991C29.4738 1.36991 28.3862 1.09166 27.2226 0.927246C27.2226 0.927246 22.9731 6.39095 25.0472 27.0316C25.0346 27.1075 25.0852 27.1707 25.1484 27.196ZM28.5379 31.1926C28.5042 31.1994 28.4723 31.213 28.444 31.2326C28.4157 31.2522 28.3918 31.2773 28.3735 31.3065C28.3609 31.3823 28.3735 31.4456 28.4241 31.4962C29.79 32.4827 33.951 35.3916 35.9493 35.9481C35.9493 35.9481 39.6551 37.2128 42.8675 31.6859L28.5379 31.1926ZM46.687 19.0131C46.687 19.0131 34.5202 25.5519 28.2218 29.8014C28.1585 29.852 28.1206 29.9279 28.1459 30.0038C28.1459 30.0038 28.2091 30.1176 28.2976 30.1176C30.5489 30.1176 39.0733 30.1302 39.3009 30.0923C40.1483 30.0291 40.983 29.8393 41.7672 29.5232C41.7672 29.5232 44.8026 28.562 46.3709 25.1092C46.3709 25.1092 47.7747 22.3015 46.687 19.0131ZM27.0708 28.3469C27.1214 28.3849 27.1973 28.3975 27.2605 28.3596C29.3094 27.3351 37.8465 22.9971 41.3751 19.5443C41.3751 19.5443 43.6137 17.7484 43.7275 14.8521C43.9805 10.8429 39.9459 7.1245 39.9459 7.1245C39.9459 7.1245 32.4839 16.1674 27.0076 28.1193C26.9988 28.1595 27 28.2013 27.011 28.241C27.022 28.2806 27.0426 28.317 27.0708 28.3469Z" fill="#8B8B8B"/>
</svg>
