<svg width="68" height="68" viewBox="0 0 68 68" fill="none" xmlns="http://www.w3.org/2000/svg">
<path d="M46.5571 0H2.50692C1.11973 0 0 1.11394 0 2.4839V46.3228C0 46.9786 0.262932 47.6119 0.729862 48.0746L19.3935 66.6387C20.9711 68.2063 23.6729 67.1013 23.6729 64.8869V26.2809C23.6729 24.9109 24.7927 23.797 26.1798 23.797H65.4881C67.7185 23.797 68.8383 21.1244 67.2652 19.5613L48.3341 0.732145C47.8626 0.26501 47.2234 0 46.5571 0Z" fill="#911403"/>
<path d="M54.0914 30.1843H31.434C30.7222 30.1843 30.1465 30.7548 30.1465 31.46V54.0038C30.1465 54.3406 30.2825 54.664 30.5228 54.9066L40.1198 64.4559C40.9313 65.2644 42.323 64.694 42.323 63.5531V43.6998C42.323 42.9946 42.8987 42.4242 43.6104 42.4242H63.8244C64.9714 42.4242 65.5471 41.0497 64.7356 40.2457L54.9981 30.5616C54.7578 30.3191 54.4269 30.1843 54.0869 30.1843H54.0914Z" fill="#911403"/>
</svg>
