<svg width="173" height="53" viewBox="0 0 173 53" fill="none" xmlns="http://www.w3.org/2000/svg">
<g clip-path="url(#clip0_28_454)">
<path fill-rule="evenodd" clip-rule="evenodd" d="M166.59 53H6.40976C2.87707 53 0 50.013 0 46.375V6.625C0 2.97382 2.87707 0 6.40976 0H166.59C170.12 0 173 2.97382 173 6.625V46.375C173 50.013 170.12 53 166.59 53Z" fill="black"/>
<path fill-rule="evenodd" clip-rule="evenodd" d="M166.59 1.06066C169.553 1.06066 171.978 3.56197 171.978 6.625V46.375C171.978 49.438 169.569 51.9393 166.59 51.9393H6.40976C3.44676 51.9393 1.02162 49.438 1.02162 46.375V6.625C1.02162 3.56197 3.43085 1.06066 6.40976 1.06066H166.59ZM166.59 0H6.40976C2.87707 0 0 2.98703 0 6.625V46.375C0 50.0262 2.87707 53 6.40976 53H166.59C170.12 53 173 50.0262 173 46.375V6.625C173 2.98703 170.12 0 166.59 0Z" fill="#A6A6A6"/>
<path d="M91.1368 17.5322C89.9816 17.5322 89.0077 17.1126 88.2375 16.2866C87.4737 15.4836 87.0472 14.3767 87.0663 13.2467C87.0663 12.0406 87.461 11.0196 88.2375 10.2101C89.0045 9.38399 89.9784 8.96436 91.1337 8.96436C92.2762 8.96436 93.2501 9.38399 94.033 10.2101C94.8095 11.046 95.2042 12.067 95.2042 13.2467C95.1914 14.456 94.7968 15.477 94.033 16.2832C93.266 17.1159 92.2921 17.5322 91.1368 17.5322ZM56.7617 17.5322C55.6319 17.5322 54.6517 17.1192 53.8497 16.3031C53.054 15.4902 52.6498 14.4626 52.6498 13.25C52.6498 12.0373 53.054 11.0097 53.8497 10.1968C54.6358 9.38069 55.616 8.96766 56.7617 8.96766C57.3219 8.96766 57.8661 9.08331 58.388 9.31791C58.9004 9.5459 59.3174 9.8565 59.6261 10.2365L59.7024 10.3323L58.84 11.2112L58.7509 11.1022C58.2639 10.5008 57.6115 10.2067 56.749 10.2067C55.9788 10.2067 55.3073 10.4909 54.7535 11.0526C54.1966 11.6177 53.9133 12.3578 53.9133 13.2533C53.9133 14.1487 54.1966 14.8889 54.7535 15.4539C55.3073 16.0156 55.9788 16.2998 56.749 16.2998C57.5701 16.2998 58.2607 16.0156 58.7986 15.4539C59.1169 15.1235 59.3142 14.6609 59.3842 14.076H56.6185V12.8402H60.5713L60.5872 12.9526C60.6158 13.1607 60.6445 13.3755 60.6445 13.5738C60.6445 14.7137 60.3135 15.6356 59.6579 16.3163C58.9132 17.1225 57.9393 17.5322 56.7617 17.5322ZM102.467 17.3571H101.248L97.5147 11.1551L97.5466 12.2719V17.3538H96.3276V9.14279H97.7184L97.7566 9.20557L101.267 15.0475L101.235 13.9339V9.14279H102.467V17.3571ZM81.9774 17.3571H80.7425V10.3786H78.6006V9.14279H84.1161V10.3786H81.9742V17.3571H81.9774ZM77.5949 17.3571H76.3633V9.14279H77.5949V17.3571ZM70.6728 17.3571H69.4412V10.3786H67.2993V9.14279H72.8147V10.3786H70.6728V17.3571ZM66.5195 17.3439H61.7966V9.14279H66.5195V10.3786H63.0314V12.6321H66.179V13.8546H63.0314V16.1081H66.5195V17.3439ZM89.1414 15.4374C89.6919 16.009 90.3603 16.2965 91.1368 16.2965C91.9357 16.2965 92.5881 16.0156 93.1323 15.4374C93.6734 14.8756 93.9471 14.1388 93.9471 13.25C93.9471 12.3611 93.6734 11.621 93.1355 11.0625C92.5849 10.4909 91.9134 10.2034 91.14 10.2034C90.3412 10.2034 89.6888 10.4843 89.1477 11.0625C88.6067 11.6243 88.333 12.3611 88.333 13.25C88.333 14.1388 88.6035 14.8789 89.1414 15.4374Z" fill="white"/>
<path fill-rule="evenodd" clip-rule="evenodd" d="M86.9518 28.8261C83.9443 28.8261 81.5064 31.1952 81.5064 34.4631C81.5064 37.7013 83.9602 40.1002 86.9518 40.1002C89.9594 40.1002 92.3973 37.7145 92.3973 34.4631C92.3973 31.1952 89.9594 28.8261 86.9518 28.8261ZM86.9518 37.8665C85.3064 37.8665 83.8901 36.4523 83.8901 34.4499C83.8901 32.4178 85.3096 31.0333 86.9518 31.0333C88.5972 31.0333 90.0135 32.4178 90.0135 34.4499C90.0167 36.4655 88.5972 37.8665 86.9518 37.8665ZM75.0711 28.8261C72.0636 28.8261 69.6257 31.1952 69.6257 34.4631C69.6257 37.7013 72.0795 40.1002 75.0711 40.1002C78.0787 40.1002 80.5166 37.7145 80.5166 34.4631C80.5166 31.1952 78.0755 28.8261 75.0711 28.8261ZM75.0711 37.8665C73.4257 37.8665 72.0095 36.4523 72.0095 34.4499C72.0095 32.4178 73.4289 31.0333 75.0711 31.0333C76.7165 31.0333 78.1328 32.4178 78.1328 34.4499C78.1328 36.4655 76.7165 37.8665 75.0711 37.8665ZM60.934 30.5476V32.9333H66.4494C66.2808 34.2715 65.8543 35.2595 65.2019 35.9368C64.3935 36.7761 63.1459 37.6881 60.9467 37.6881C57.5572 37.6881 54.9061 34.8464 54.9061 31.3274C54.9061 27.8084 57.5572 24.9667 60.9467 24.9667C62.7767 24.9667 64.1102 25.7168 65.1 26.675L66.7295 24.9833C65.3546 23.6153 63.5246 22.5679 60.9594 22.5679C56.3097 22.5679 52.4078 26.4999 52.4078 31.3142C52.4078 36.1417 56.3065 40.0605 60.9594 40.0605C63.4705 40.0605 65.3546 39.208 66.8441 37.6022C68.3622 36.026 68.8428 33.8023 68.8428 32.0081C68.8428 31.4497 68.8014 30.9474 68.7155 30.5212H60.9308C60.934 30.5179 60.934 30.5476 60.934 30.5476ZM118.759 32.4046C118.304 31.1391 116.929 28.8129 114.109 28.8129C111.315 28.8129 108.991 31.0961 108.991 34.4499C108.991 37.6154 111.289 40.0869 114.38 40.0869C116.862 40.0869 118.307 38.5108 118.902 37.5856L117.059 36.3036C116.448 37.2453 115.598 37.8632 114.392 37.8632C113.173 37.8632 112.32 37.2883 111.754 36.1549L119.013 33.0324C119.013 33.0357 118.759 32.4046 118.759 32.4046ZM111.356 34.288C111.299 32.1105 112.986 31.0036 114.192 31.0036C115.143 31.0036 115.936 31.4893 116.206 32.1964L111.356 34.288ZM105.459 39.7499H107.842V23.1891H105.459V39.7499ZM101.544 30.0784H101.458C100.92 29.4143 99.8987 28.8129 98.5938 28.8129C95.8854 28.8129 93.3902 31.2878 93.3902 34.4664C93.3902 37.6319 95.8727 40.077 98.5938 40.077C99.8827 40.077 100.92 39.4724 101.458 38.795H101.544V39.6045C101.544 41.7556 100.437 42.9154 98.6511 42.9154C97.1903 42.9154 96.2832 41.825 95.914 40.913L93.8422 41.8118C94.4373 43.2987 96.0254 45.1391 98.6479 45.1391C101.442 45.1391 103.81 43.4308 103.81 39.2642V29.1499H101.557V30.0784C101.56 30.0784 101.544 30.0784 101.544 30.0784ZM98.807 37.8665C97.1616 37.8665 95.7867 36.4391 95.7867 34.4664C95.7867 32.4773 97.1616 31.0366 98.807 31.0366C100.437 31.0366 101.7 32.4938 101.7 34.4664C101.716 36.4391 100.44 37.8665 98.807 37.8665ZM129.92 23.1891H124.22V39.7499H126.604V33.4785H129.923C132.562 33.4785 135.156 31.4926 135.156 28.3404C135.156 25.1881 132.571 23.1891 129.92 23.1891ZM129.99 31.1655H126.601V25.4822H129.99C131.776 25.4822 132.785 27.0121 132.785 28.3239C132.785 29.6224 131.763 31.1655 129.99 31.1655ZM144.71 28.7964C142.978 28.7964 141.193 29.5927 140.455 31.3274L142.568 32.2394C143.023 31.3274 143.857 31.0168 144.738 31.0168C145.973 31.0168 147.221 31.7834 147.25 33.1513V33.3265C146.823 33.0753 145.887 32.6921 144.767 32.6921C142.485 32.6921 140.171 33.9873 140.171 36.4159C140.171 38.6397 142.043 40.0671 144.127 40.0671C145.728 40.0671 146.61 39.3171 147.16 38.448H147.246V39.7301H149.544V33.386C149.544 30.432 147.431 28.7964 144.71 28.7964ZM144.411 37.8665C143.631 37.8665 142.539 37.47 142.539 36.4523C142.539 35.1702 143.901 34.6845 145.063 34.6845C146.113 34.6845 146.61 34.9191 147.234 35.2429C147.062 36.7298 145.852 37.8533 144.411 37.8665ZM157.927 29.1499L155.19 36.3333H155.104L152.268 29.1499H149.703L153.958 39.1915L151.533 44.7724H154.016L160.562 29.1499H157.927ZM136.47 39.7499H138.854V23.1891H136.47V39.7499Z" fill="white"/>
<path fill-rule="evenodd" clip-rule="evenodd" d="M13.3161 9.98228C12.9469 10.3953 12.7336 11.0264 12.7336 11.8525V41.1512C12.7336 41.9772 12.9469 42.6083 13.3288 43.0048L13.4275 43.0941L29.2386 26.6786V26.3118L13.4147 9.89307L13.3161 9.98228Z" fill="url(#paint0_linear_28_454)"/>
<path fill-rule="evenodd" clip-rule="evenodd" d="M34.4993 32.1665L29.2257 26.6914V26.3081L34.4993 20.833L34.6139 20.9057L40.8518 24.5866C42.6373 25.6308 42.6373 27.3556 40.8518 28.4129L34.6139 32.0939L34.4993 32.1665Z" fill="url(#paint1_linear_28_454)"/>
<path fill-rule="evenodd" clip-rule="evenodd" d="M34.614 32.0941L29.2258 26.5L13.316 43.0179C13.8984 43.6655 14.8755 43.7382 15.9671 43.1071L34.614 32.0941Z" fill="url(#paint2_linear_28_454)"/>
<path fill-rule="evenodd" clip-rule="evenodd" d="M34.614 20.9057L15.9671 9.90923C14.8755 9.2616 13.8952 9.35082 13.316 9.99845L29.2258 26.4998L34.614 20.9057Z" fill="url(#paint3_linear_28_454)"/>
<path opacity="0.2" fill-rule="evenodd" clip-rule="evenodd" d="M34.4994 31.9751L15.9797 42.8989C14.9454 43.5168 14.0224 43.4738 13.4273 42.9121L13.3286 43.0145L13.4273 43.1037C14.0224 43.6621 14.9454 43.7084 15.9797 43.0905L34.6267 32.094L34.4994 31.9751Z" fill="black"/>
<path opacity="0.12" fill-rule="evenodd" clip-rule="evenodd" d="M40.8519 28.2215L34.4835 31.9751L34.5981 32.0941L40.836 28.4132C41.7303 27.8845 42.1695 27.1906 42.1695 26.5C42.1154 27.1344 41.6603 27.7358 40.8519 28.2215Z" fill="black"/>
<path opacity="0.25" fill-rule="evenodd" clip-rule="evenodd" d="M15.9672 10.1013L40.8519 24.7787C41.6603 25.2512 42.1154 25.8691 42.1855 26.5002C42.1855 25.8096 41.7463 25.1157 40.8519 24.5871L15.9672 9.90963C14.1817 8.84897 12.7336 9.73451 12.7336 11.8525V12.0442C12.7336 9.92285 14.1817 9.05384 15.9672 10.1013Z" fill="white"/>
</g>
<defs>
<linearGradient id="paint0_linear_28_454" x1="27.8204" y1="11.5364" x2="2.3717" y2="18.0676" gradientUnits="userSpaceOnUse">
<stop stop-color="#00A0FF"/>
<stop offset="0.00657" stop-color="#00A1FF"/>
<stop offset="0.2601" stop-color="#00BEFF"/>
<stop offset="0.5122" stop-color="#00D2FF"/>
<stop offset="0.7604" stop-color="#00DFFF"/>
<stop offset="1" stop-color="#00E3FF"/>
</linearGradient>
<linearGradient id="paint1_linear_28_454" x1="43.1802" y1="26.4998" x2="12.2994" y2="26.4998" gradientUnits="userSpaceOnUse">
<stop stop-color="#FFE000"/>
<stop offset="0.4087" stop-color="#FFBD00"/>
<stop offset="0.7754" stop-color="#FFA500"/>
<stop offset="1" stop-color="#FF9C00"/>
</linearGradient>
<linearGradient id="paint2_linear_28_454" x1="31.6841" y1="29.544" x2="10.2046" y2="64.365" gradientUnits="userSpaceOnUse">
<stop stop-color="#FF3A44"/>
<stop offset="1" stop-color="#C31162"/>
</linearGradient>
<linearGradient id="paint3_linear_28_454" x1="9.30971" y1="0.236718" x2="18.8929" y2="15.7888" gradientUnits="userSpaceOnUse">
<stop stop-color="#32A071"/>
<stop offset="0.0685" stop-color="#2DA771"/>
<stop offset="0.4762" stop-color="#15CF74"/>
<stop offset="0.8009" stop-color="#06E775"/>
<stop offset="1" stop-color="#00F076"/>
</linearGradient>
<clipPath id="clip0_28_454">
<rect width="173" height="53" fill="white"/>
</clipPath>
</defs>
</svg>
