<svg width="160" height="54" viewBox="0 0 160 54" fill="none" xmlns="http://www.w3.org/2000/svg">
<path d="M147.259 0.00017382H12.7486C12.2583 0.00017382 11.7739 0.00017382 11.2849 0.00284797C10.8755 0.00552213 10.4694 0.0132905 10.0562 0.0198288C9.15832 0.0303942 8.26261 0.109381 7.37678 0.256104C6.49221 0.40602 5.63534 0.688656 4.83516 1.09445C4.03596 1.50368 3.30571 2.03543 2.6709 2.67041C2.03276 3.3036 1.50082 4.03549 1.09553 4.83793C0.689129 5.63877 0.407328 6.49695 0.259861 7.38282C0.110992 8.26757 0.0308843 9.16252 0.0202567 10.0596C0.00784864 10.4696 0.0065383 10.8809 0 11.2909V42.1964C0.0065383 42.6116 0.00784864 43.0138 0.0202567 43.4291C0.0308876 44.3262 0.110995 45.2211 0.259861 46.1058C0.40692 46.9922 0.688739 47.8508 1.09553 48.652C1.50063 49.4518 2.03265 50.1807 2.6709 50.8104C3.30331 51.4482 4.03403 51.9803 4.83516 52.3864C5.63533 52.7933 6.49211 53.0776 7.37678 53.2299C8.26276 53.3754 9.15838 53.4544 10.0562 53.4663C10.4694 53.4753 10.8755 53.4806 11.2849 53.4806C11.7739 53.4832 12.2583 53.4832 12.7486 53.4832H147.259C147.739 53.4832 148.227 53.4832 148.708 53.4806C149.115 53.4806 149.533 53.4753 149.941 53.4663C150.837 53.4551 151.731 53.376 152.615 53.2299C153.502 53.0766 154.362 52.7923 155.166 52.3864C155.967 51.9801 156.697 51.448 157.329 50.8104C157.965 50.1783 158.498 49.4499 158.908 48.652C159.312 47.8503 159.591 46.9917 159.736 46.1058C159.885 45.221 159.968 44.3262 159.984 43.4291C159.99 43.0138 159.99 42.6116 159.99 42.1964C160 41.7107 160 41.2276 160 40.7339V12.7507C160 12.2611 160 11.7753 159.99 11.2909C159.99 10.8809 159.99 10.4696 159.984 10.0596C159.968 9.16239 159.885 8.26763 159.736 7.38276C159.591 6.49741 159.312 5.6393 158.908 4.83788C158.083 3.22948 156.774 1.92025 155.166 1.09433C154.362 0.689527 153.502 0.406967 152.615 0.255983C151.731 0.108614 150.837 0.0295999 149.941 0.0196417C149.533 0.0131167 149.115 0.00528145 148.708 0.00267415C148.227 0 147.739 0 147.259 0V0.00017382Z" fill="#A6A6A6"/>
<path d="M11.2924 52.3131C10.8851 52.3131 10.4875 52.3079 10.0833 52.2988C9.24603 52.2879 8.41069 52.215 7.58415 52.0807C6.81345 51.948 6.06684 51.7011 5.36896 51.3481C4.67748 50.9981 4.0468 50.5392 3.50107 49.9889C2.94744 49.445 2.48651 48.8143 2.13657 48.1216C1.78276 47.4245 1.53791 46.6772 1.41053 45.9058C1.27298 45.077 1.19856 44.2389 1.18791 43.3988C1.17943 43.1168 1.16833 42.1779 1.16833 42.1779V11.2907C1.16833 11.2907 1.18015 10.3662 1.18798 10.0946C1.19817 9.25587 1.27216 8.41909 1.4093 7.59154C1.53691 6.81807 1.78196 6.06863 2.13595 5.36918C2.48461 4.677 2.94298 4.04579 3.49327 3.50002C4.04295 2.94906 4.67565 2.48775 5.36831 2.1329C6.06458 1.78109 6.80978 1.53592 7.57892 1.40561C8.40817 1.26998 9.24642 1.19666 10.0866 1.18625L11.2931 1.16992H148.703L149.923 1.1869C150.756 1.1968 151.587 1.26947 152.408 1.4043C153.185 1.53625 153.938 1.78313 154.642 2.13682C156.03 2.85195 157.159 3.98335 157.871 5.37245C158.22 6.06707 158.461 6.81039 158.587 7.57718C158.726 8.41152 158.803 9.25487 158.819 10.1005C158.823 10.4792 158.823 10.8859 158.823 11.2907C158.834 11.7921 158.834 12.2694 158.834 12.7505V40.7337C158.834 41.2195 158.834 41.6935 158.823 42.1714C158.823 42.6062 158.823 43.0045 158.818 43.4145C158.802 44.245 158.726 45.0733 158.59 45.8927C158.465 46.6696 158.221 47.4228 157.867 48.1256C157.515 48.8108 157.057 49.4361 156.51 49.9784C155.963 50.5317 155.332 50.9933 154.638 51.3456C153.936 51.7012 153.184 51.9491 152.408 52.0807C151.582 52.2157 150.746 52.2886 149.909 52.2988C149.517 52.3079 149.107 52.3131 148.709 52.3131L147.26 52.3158L11.2924 52.3131Z" fill="black"/>
<path d="M33.1157 27.1437C33.1301 26.0277 33.4265 24.9334 33.9774 23.9628C34.5283 22.9921 35.3158 22.1766 36.2666 21.5921C35.6626 20.7294 34.8658 20.0195 33.9394 19.5187C33.0131 19.0179 31.9827 18.74 30.9301 18.7071C28.6848 18.4714 26.5082 20.0506 25.364 20.0506C24.1977 20.0506 22.4361 18.7305 20.5392 18.7695C19.3122 18.8092 18.1164 19.166 17.0682 19.8052C16.0201 20.4444 15.1555 21.3442 14.5585 22.4169C11.9726 26.894 13.9015 33.4738 16.3786 37.0927C17.6179 38.8648 19.0663 40.8443 20.9616 40.7741C22.8162 40.6972 23.5088 39.5915 25.7475 39.5915C27.9654 39.5915 28.6152 40.7741 30.5489 40.7295C32.539 40.6972 33.7929 38.9495 34.9887 37.1606C35.8792 35.898 36.5644 34.5024 37.019 33.0257C35.8628 32.5367 34.8761 31.7182 34.182 30.6722C33.4879 29.6262 33.1171 28.399 33.1157 27.1437Z" fill="white"/>
<path d="M29.4632 16.3269C30.5483 15.0243 31.0829 13.35 30.9534 11.6597C29.2957 11.8338 27.7644 12.6261 26.6646 13.8787C26.1269 14.4906 25.7151 15.2025 25.4527 15.9737C25.1903 16.7449 25.0825 17.5602 25.1354 18.3731C25.9646 18.3817 26.7849 18.2019 27.5345 17.8475C28.2842 17.4931 28.9436 16.9731 29.4632 16.3269Z" fill="white"/>
<path d="M56.5579 36.2869H50.2289L48.7091 40.7747H46.0284L52.023 24.1709H54.8082L60.8028 40.7747H58.0764L56.5579 36.2869ZM50.8844 34.216H55.9011L53.4281 26.9326H53.3588L50.8844 34.216Z" fill="white"/>
<path d="M73.7465 34.7233C73.7465 38.4852 71.7331 40.9021 68.6946 40.9021C67.9249 40.9423 67.1594 40.765 66.4858 40.3905C65.8122 40.0159 65.2577 39.4592 64.8858 38.7841H64.8283V44.7801H62.3434V28.6699H64.7487V30.6834H64.7944C65.1834 30.0115 65.7473 29.4577 66.426 29.0809C67.1048 28.704 67.873 28.5182 68.6489 28.5432C71.7212 28.5433 73.7465 30.9719 73.7465 34.7233ZM71.1925 34.7233C71.1925 32.2725 69.9259 30.6612 67.9934 30.6612C66.0949 30.6612 64.8179 32.3064 64.8179 34.7233C64.8179 37.1624 66.0949 38.7959 67.9934 38.7959C69.9259 38.7959 71.1925 37.1964 71.1925 34.7233Z" fill="white"/>
<path d="M87.0725 34.7233C87.0725 38.4851 85.0591 40.9021 82.0206 40.9021C81.251 40.9423 80.4855 40.765 79.8119 40.3905C79.1383 40.0159 78.5837 39.4592 78.2118 38.7841H78.1543V44.7801H75.6695V28.6699H78.0747V30.6833H78.1204C78.5094 30.0115 79.0733 29.4577 79.752 29.0809C80.4308 28.704 81.199 28.5182 81.9749 28.5432C85.0473 28.5432 87.0725 30.9719 87.0725 34.7233ZM84.5185 34.7233C84.5185 32.2724 83.2519 30.6612 81.3195 30.6612C79.4209 30.6612 78.1439 32.3064 78.1439 34.7233C78.1439 37.1624 79.4209 38.7959 81.3195 38.7959C83.252 38.7959 84.5185 37.1964 84.5185 34.7233H84.5185Z" fill="white"/>
<path d="M95.8789 36.149C96.063 37.7955 97.6625 38.8766 99.8483 38.8766C101.943 38.8766 103.45 37.7954 103.45 36.3108C103.45 35.022 102.541 34.2504 100.389 33.7215L98.2371 33.2031C95.1882 32.4667 93.7727 31.0408 93.7727 28.7271C93.7727 25.8623 96.2693 23.8945 99.8144 23.8945C103.323 23.8945 105.728 25.8623 105.809 28.7271H103.301C103.151 27.0701 101.781 26.0699 99.7791 26.0699C97.7774 26.0699 96.4077 27.0819 96.4077 28.5547C96.4077 29.7286 97.2825 30.4193 99.4226 30.9481L101.252 31.3973C104.659 32.2029 106.074 33.5714 106.074 36C106.074 39.1063 103.6 41.0519 99.6642 41.0519C95.982 41.0519 93.4959 39.152 93.3353 36.1488L95.8789 36.149Z" fill="white"/>
<path d="M111.438 25.8052V28.67H113.74V30.6377H111.438V37.3113C111.438 38.3481 111.899 38.8312 112.911 38.8312C113.184 38.8265 113.457 38.8073 113.728 38.7737V40.7297C113.273 40.8147 112.811 40.8532 112.348 40.8446C109.897 40.8446 108.942 39.9241 108.942 37.5764V30.6377H107.181V28.67H108.941V25.8052H111.438Z" fill="white"/>
<path d="M115.074 34.7228C115.074 30.9139 117.318 28.5205 120.816 28.5205C124.326 28.5205 126.558 30.9139 126.558 34.7228C126.558 38.5421 124.337 40.925 120.816 40.925C117.295 40.925 115.074 38.542 115.074 34.7228ZM124.027 34.7228C124.027 32.11 122.829 30.5679 120.816 30.5679C118.802 30.5679 117.606 32.1217 117.606 34.7228C117.606 37.346 118.802 38.8763 120.816 38.8763C122.829 38.8763 124.026 37.346 124.026 34.7228H124.027Z" fill="white"/>
<path d="M128.603 28.6698H130.973V30.7302H131.031C131.191 30.0867 131.568 29.518 132.098 29.1197C132.629 28.7214 133.28 28.5178 133.942 28.5431C134.229 28.5421 134.514 28.5732 134.794 28.6358V30.96C134.432 30.8496 134.055 30.7989 133.677 30.8099C133.316 30.7952 132.957 30.8589 132.622 30.9965C132.288 31.134 131.988 31.3423 131.742 31.6069C131.496 31.8714 131.31 32.1861 131.197 32.5293C131.085 32.8725 131.047 33.2361 131.088 33.595V40.7753H128.603L128.603 28.6698Z" fill="white"/>
<path d="M146.252 37.2193C145.918 39.4169 143.778 40.925 141.04 40.925C137.518 40.925 135.332 38.5655 135.332 34.7802C135.332 30.9831 137.53 28.5205 140.935 28.5205C144.284 28.5205 146.391 30.8212 146.391 34.4916V35.343H137.841V35.4931C137.801 35.9387 137.857 36.3875 138.004 36.8098C138.152 37.2321 138.387 37.6182 138.695 37.9425C139.003 38.2668 139.377 38.5219 139.791 38.6908C140.205 38.8596 140.65 38.9385 141.097 38.922C141.684 38.977 142.274 38.841 142.777 38.5343C143.281 38.2275 143.672 37.7663 143.893 37.2193L146.252 37.2193ZM137.852 33.6064H143.905C143.927 33.2058 143.866 32.8049 143.726 32.4289C143.586 32.0529 143.37 31.7099 143.091 31.4214C142.812 31.1329 142.477 30.9052 142.106 30.7524C141.735 30.5997 141.336 30.5253 140.935 30.534C140.531 30.5315 140.13 30.6093 139.755 30.7627C139.381 30.9161 139.04 31.1422 138.754 31.4278C138.467 31.7135 138.24 32.053 138.085 32.427C137.93 32.8009 137.851 33.2017 137.852 33.6064V33.6064Z" fill="white"/>
<path d="M50.5779 11.6746C51.0989 11.6372 51.6216 11.7159 52.1085 11.905C52.5953 12.0941 53.0341 12.3889 53.3932 12.7681C53.7524 13.1474 54.0228 13.6016 54.1852 14.098C54.3475 14.5944 54.3976 15.1207 54.3319 15.6388C54.3319 18.1876 52.9544 19.6527 50.5779 19.6527H47.6962V11.6746H50.5779ZM48.9353 18.5244H50.4395C50.8118 18.5467 51.1843 18.4856 51.53 18.3458C51.8757 18.2059 52.1858 17.9907 52.4378 17.7158C52.6899 17.441 52.8774 17.1134 52.9869 16.7569C53.0963 16.4004 53.1249 16.024 53.0706 15.6551C53.121 15.2876 53.0895 14.9135 52.9784 14.5596C52.8672 14.2058 52.6792 13.8808 52.4277 13.6082C52.1763 13.3355 51.8676 13.1218 51.5239 12.9825C51.1802 12.8431 50.8099 12.7815 50.4395 12.802H48.9353V18.5244Z" fill="white"/>
<path d="M55.7333 16.6395C55.6954 16.2439 55.7407 15.8447 55.8662 15.4675C55.9916 15.0904 56.1945 14.7436 56.4619 14.4495C56.7292 14.1553 57.0551 13.9203 57.4186 13.7595C57.7821 13.5987 58.1751 13.5156 58.5726 13.5156C58.9701 13.5156 59.3632 13.5987 59.7267 13.7595C60.0901 13.9203 60.416 14.1553 60.6833 14.4495C60.9507 14.7436 61.1536 15.0904 61.2791 15.4675C61.4045 15.8447 61.4498 16.2439 61.4119 16.6395C61.4505 17.0356 61.4058 17.4354 61.2806 17.8131C61.1555 18.1909 60.9527 18.5383 60.6853 18.833C60.4179 19.1277 60.0918 19.3632 59.7279 19.5244C59.3641 19.6855 58.9706 19.7688 58.5726 19.7688C58.1747 19.7688 57.7811 19.6855 57.4173 19.5244C57.0534 19.3632 56.7273 19.1277 56.4599 18.833C56.1925 18.5383 55.9897 18.1909 55.8646 17.8131C55.7394 17.4354 55.6947 17.0356 55.7333 16.6395ZM60.1898 16.6395C60.1898 15.3345 59.6035 14.5713 58.5746 14.5713C57.5417 14.5713 56.9607 15.3345 56.9607 16.6396C56.9607 17.9551 57.5418 18.7124 58.5746 18.7124C59.6035 18.7124 60.1898 17.9498 60.1898 16.6395H60.1898Z" fill="white"/>
<path d="M68.959 19.6521H67.7264L66.4821 15.2178H66.388L65.1489 19.6521H63.928L62.2684 13.6313H63.4736L64.5522 18.2255H64.641L65.8788 13.6313H67.0187L68.2566 18.2255H68.3506L69.4239 13.6313H70.6121L68.959 19.6521Z" fill="white"/>
<path d="M72.0057 13.6319H73.1496V14.5884H73.2384C73.389 14.2448 73.643 13.9569 73.9651 13.7646C74.2872 13.5723 74.6612 13.4853 75.0351 13.5157C75.328 13.4937 75.6222 13.5378 75.8957 13.6449C76.1693 13.752 76.4153 13.9193 76.6154 14.1344C76.8155 14.3494 76.9647 14.6068 77.0519 14.8873C77.1391 15.1678 77.162 15.4644 77.119 15.755V19.6526H75.9308V16.0534C75.9308 15.0859 75.5103 14.6047 74.6316 14.6047C74.4327 14.5954 74.2341 14.6293 74.0495 14.7039C73.8649 14.7786 73.6987 14.8923 73.5621 15.0372C73.4256 15.1821 73.322 15.3548 73.2584 15.5435C73.1949 15.7322 73.1729 15.9324 73.194 16.1304V19.6527H72.0057L72.0057 13.6319Z" fill="white"/>
<path d="M79.0126 11.2812H80.2009V19.6523H79.0126V11.2812Z" fill="white"/>
<path d="M81.855 16.6397C81.8171 16.244 81.8624 15.8447 81.9879 15.4676C82.1134 15.0904 82.3164 14.7436 82.5837 14.4495C82.8511 14.1554 83.177 13.9203 83.5405 13.7595C83.904 13.5987 84.2971 13.5156 84.6946 13.5156C85.0921 13.5156 85.4852 13.5987 85.8487 13.7595C86.2122 13.9203 86.5381 14.1554 86.8055 14.4495C87.0729 14.7436 87.2758 15.0904 87.4013 15.4676C87.5268 15.8447 87.5721 16.244 87.5343 16.6397C87.5728 17.0357 87.528 17.4355 87.4028 17.8133C87.2777 18.191 87.0748 18.5384 86.8074 18.8331C86.54 19.1278 86.2138 19.3633 85.85 19.5245C85.4861 19.6856 85.0926 19.7689 84.6946 19.7689C84.2967 19.7689 83.9031 19.6856 83.5392 19.5245C83.1754 19.3633 82.8492 19.1278 82.5818 18.8331C82.3144 18.5384 82.1116 18.191 81.9864 17.8133C81.8612 17.4355 81.8164 17.0357 81.855 16.6397ZM86.3114 16.6397C86.3114 15.3346 85.7251 14.5714 84.6962 14.5714C83.6634 14.5714 83.0824 15.3346 83.0824 16.6397C83.0824 17.9552 83.6634 18.7125 84.6962 18.7125C85.7252 18.7125 86.3114 17.95 86.3114 16.6397H86.3114Z" fill="white"/>
<path d="M88.7853 17.9499C88.7853 16.8661 89.5922 16.2413 91.0246 16.1526L92.6555 16.0585V15.5389C92.6555 14.903 92.235 14.5439 91.4229 14.5439C90.7596 14.5439 90.2999 14.7874 90.1681 15.2131H89.0177C89.1391 14.1789 90.1119 13.5156 91.4777 13.5156C92.9872 13.5156 93.8385 14.2671 93.8385 15.5389V19.6526H92.6947V18.8065H92.6006C92.4098 19.11 92.1419 19.3574 91.8242 19.5235C91.5064 19.6896 91.1503 19.7683 90.7922 19.7518C90.5394 19.7781 90.284 19.7511 90.0423 19.6726C89.8006 19.5941 89.578 19.4659 89.389 19.2961C89.1999 19.1263 89.0485 18.9188 88.9445 18.687C88.8405 18.4551 88.7863 18.204 88.7853 17.9499ZM92.6555 17.4354V16.9321L91.1852 17.0261C90.3561 17.0816 89.98 17.3636 89.98 17.8944C89.98 18.4363 90.4501 18.7516 91.0965 18.7516C91.2859 18.7708 91.4772 18.7517 91.659 18.6954C91.8409 18.6391 92.0095 18.5468 92.155 18.424C92.3005 18.3012 92.4197 18.1504 92.5057 17.9806C92.5917 17.8108 92.6426 17.6254 92.6555 17.4354Z" fill="white"/>
<path d="M95.3999 16.6394C95.3999 14.7369 96.3779 13.5317 97.8991 13.5317C98.2754 13.5144 98.6488 13.6045 98.9757 13.7915C99.3027 13.9786 99.5696 14.2548 99.7454 14.588H99.8342V11.2812H101.022V19.6523H99.8838V18.7011H99.7898C99.6005 19.032 99.3242 19.3048 98.9909 19.49C98.6577 19.6751 98.2801 19.7656 97.8991 19.7516C96.3675 19.7516 95.3999 18.5464 95.3999 16.6394ZM96.6273 16.6394C96.6273 17.9164 97.2293 18.6848 98.236 18.6848C99.2375 18.6848 99.8564 17.9053 99.8564 16.6446C99.8564 15.3898 99.231 14.5992 98.236 14.5992C97.2358 14.5992 96.6273 15.3728 96.6273 16.6394H96.6273Z" fill="white"/>
<path d="M105.937 16.6395C105.899 16.2439 105.944 15.8447 106.07 15.4675C106.195 15.0904 106.398 14.7436 106.665 14.4495C106.933 14.1553 107.259 13.9203 107.622 13.7595C107.986 13.5987 108.379 13.5156 108.776 13.5156C109.174 13.5156 109.567 13.5987 109.93 13.7595C110.294 13.9203 110.619 14.1553 110.887 14.4495C111.154 14.7436 111.357 15.0904 111.483 15.4675C111.608 15.8447 111.653 16.2439 111.615 16.6395C111.654 17.0356 111.609 17.4354 111.484 17.8131C111.359 18.1909 111.156 18.5383 110.889 18.833C110.621 19.1277 110.295 19.3632 109.931 19.5244C109.568 19.6855 109.174 19.7688 108.776 19.7688C108.378 19.7688 107.985 19.6855 107.621 19.5244C107.257 19.3632 106.931 19.1277 106.663 18.833C106.396 18.5383 106.193 18.1909 106.068 17.8131C105.943 17.4354 105.898 17.0356 105.937 16.6395ZM110.393 16.6395C110.393 15.3345 109.807 14.5713 108.778 14.5713C107.745 14.5713 107.164 15.3345 107.164 16.6396C107.164 17.9551 107.745 18.7124 108.778 18.7124C109.807 18.7124 110.393 17.9498 110.393 16.6395Z" fill="white"/>
<path d="M113.209 13.6319H114.353V14.5884H114.442C114.593 14.2448 114.847 13.9569 115.169 13.7646C115.491 13.5723 115.865 13.4853 116.239 13.5157C116.532 13.4937 116.826 13.5378 117.099 13.6449C117.373 13.752 117.619 13.9193 117.819 14.1344C118.019 14.3494 118.168 14.6068 118.256 14.8873C118.343 15.1678 118.366 15.4644 118.323 15.755V19.6526H117.134V16.0534C117.134 15.0859 116.714 14.6047 115.835 14.6047C115.636 14.5954 115.438 14.6293 115.253 14.7039C115.069 14.7786 114.902 14.8923 114.766 15.0372C114.629 15.1821 114.526 15.3548 114.462 15.5435C114.399 15.7322 114.377 15.9324 114.398 16.1304V19.6527H113.209V13.6319Z" fill="white"/>
<path d="M125.039 12.1328V13.6592H126.344V14.6601H125.039V17.756C125.039 18.3867 125.299 18.6628 125.891 18.6628C126.042 18.6623 126.193 18.6532 126.344 18.6354V19.6251C126.13 19.6633 125.914 19.6836 125.697 19.6858C124.376 19.6858 123.85 19.221 123.85 18.0602V14.66H122.894V13.6592H123.85V12.1328H125.039Z" fill="white"/>
<path d="M127.965 11.2812H129.143V14.5991H129.237C129.395 14.2524 129.656 13.9628 129.985 13.7698C130.313 13.5768 130.693 13.4898 131.073 13.5206C131.364 13.5047 131.656 13.5534 131.926 13.6631C132.197 13.7728 132.44 13.9408 132.638 14.1552C132.836 14.3696 132.984 14.625 133.072 14.9033C133.16 15.1816 133.185 15.4759 133.146 15.7652V19.6524H131.957V16.0583C131.957 15.0966 131.509 14.6096 130.67 14.6096C130.465 14.5928 130.26 14.6209 130.068 14.6918C129.875 14.7628 129.701 14.8749 129.557 15.0202C129.412 15.1656 129.301 15.3408 129.232 15.5335C129.162 15.7263 129.135 15.9319 129.154 16.136V19.6523H127.965L127.965 11.2812Z" fill="white"/>
<path d="M140.075 18.027C139.914 18.5773 139.564 19.0533 139.087 19.3717C138.61 19.6901 138.036 19.8307 137.466 19.7689C137.069 19.7794 136.675 19.7034 136.311 19.5463C135.947 19.3891 135.621 19.1546 135.356 18.8589C135.092 18.5632 134.894 18.2135 134.779 17.834C134.663 17.4545 134.631 17.0543 134.685 16.6613C134.632 16.267 134.665 15.8659 134.78 15.4853C134.896 15.1047 135.092 14.7533 135.355 14.4551C135.618 14.1568 135.943 13.9186 136.306 13.7565C136.669 13.5944 137.063 13.5123 137.461 13.5157C139.136 13.5157 140.147 14.6603 140.147 16.5509V16.9655H135.895V17.0321C135.877 17.253 135.904 17.4754 135.977 17.685C136.049 17.8946 136.165 18.0868 136.316 18.2492C136.467 18.4115 136.65 18.5406 136.854 18.628C137.057 18.7155 137.277 18.7594 137.499 18.7569C137.783 18.791 138.071 18.7399 138.326 18.6099C138.581 18.4799 138.792 18.277 138.931 18.027L140.075 18.027ZM135.895 16.0867H138.936C138.951 15.8847 138.924 15.6817 138.856 15.4909C138.788 15.3 138.68 15.1256 138.541 14.9787C138.401 14.8318 138.232 14.7157 138.045 14.6379C137.858 14.5602 137.657 14.5224 137.454 14.527C137.249 14.5244 137.045 14.563 136.855 14.6405C136.664 14.718 136.491 14.8328 136.346 14.9781C136.201 15.1235 136.086 15.2965 136.009 15.4869C135.931 15.6773 135.893 15.8812 135.895 16.0867H135.895Z" fill="white"/>
</svg>
