<svg width="131" height="29" viewBox="0 0 131 29" fill="none" xmlns="http://www.w3.org/2000/svg">
<path d="M19.8543 0H1.06908C0.47751 0 0 0.479467 0 1.06913V19.9385C0 20.2207 0.112128 20.4933 0.311251 20.6925L8.27039 28.6829C8.94315 29.3577 10.0954 28.8821 10.0954 27.9289V11.3119C10.0954 10.7223 10.5729 10.2428 11.1644 10.2428H27.9275C28.8787 10.2428 29.3562 9.09247 28.6854 8.41967L20.6122 0.315133C20.4111 0.114067 20.1385 0 19.8543 0Z" fill="#911403"/>
<path d="M23.0674 12.992H13.4051C13.1015 12.992 12.856 13.2375 12.856 13.5411V23.2445C12.856 23.3895 12.914 23.5287 13.0165 23.6331L17.1091 27.7433C17.4552 28.0913 18.0487 27.8458 18.0487 27.3547V18.8094C18.0487 18.5059 18.2942 18.2603 18.5977 18.2603H27.218C27.7071 18.2603 27.9527 17.6687 27.6066 17.3227L23.454 13.1544C23.3516 13.05 23.2104 12.992 23.0654 12.992H23.0674Z" fill="#911403"/>
<path d="M38.7381 5.22968H50.5289V8.46994H42.3764V13.0635H49.9451V16.3038H42.3764V23.8187H38.7381V5.22968Z" fill="#4E5453"/>
<path d="M66.5903 16.2497H69.8826V23.8187H57.6664V5.22968H61.3048V20.5803H66.5903V16.2516V16.2497Z" fill="#4E5453"/>
<path d="M75.5469 14.5232C75.5469 13.0191 75.688 11.6638 75.9722 10.4593C76.2544 9.25487 76.6894 8.2418 77.2732 7.4182C77.8571 6.5946 78.5878 5.9624 79.4636 5.51967C80.3394 5.07694 81.3717 4.85654 82.5568 4.85654C83.8308 4.85654 84.9115 5.09627 85.7969 5.5738C86.6823 6.05134 87.4034 6.7164 87.9602 7.56514C88.5169 8.41387 88.9249 9.43274 89.182 10.6198C89.4391 11.8069 89.5667 13.108 89.5667 14.5232C89.5667 17.5508 88.9867 19.9191 87.8268 21.6263C86.6668 23.3353 84.9095 24.1899 82.5548 24.1899C81.2808 24.1899 80.1963 23.9501 79.3012 23.4726C78.4061 22.9951 77.6812 22.33 77.1244 21.4813C76.5676 20.6306 76.1636 19.6137 75.9161 18.4266C75.6687 17.2415 75.5449 15.9384 75.5449 14.5232H75.5469ZM79.3708 14.5232C79.3708 15.4261 79.4114 16.2671 79.4907 17.0462C79.5699 17.8253 79.7207 18.502 79.9411 19.0781C80.1615 19.6543 80.4805 20.1105 80.8981 20.445C81.3137 20.7814 81.8666 20.9496 82.5568 20.9496C83.1754 20.9496 83.6897 20.822 84.0976 20.5649C84.5055 20.3077 84.8322 19.9133 85.0796 19.3836C85.3271 18.8519 85.4992 18.1849 85.5978 17.3787C85.6944 16.5725 85.7447 15.6213 85.7447 14.5232C85.7447 13.6551 85.7137 12.8335 85.6519 12.0543C85.59 11.2752 85.4489 10.5927 85.2266 10.0089C85.0043 9.425 84.6814 8.95907 84.258 8.61494C83.8327 8.26887 83.2663 8.0968 82.5587 8.0968C81.3195 8.0968 80.4785 8.6362 80.0358 9.71694C79.5931 10.7977 79.3727 12.3985 79.3727 14.5232H79.3708Z" fill="#4E5453"/>
<path d="M97.4757 20.8974H100.503V8.14899H97.9532V11.3622H95.0321V5.22772H109.584V11.3622H106.662V8.14899H104.14V20.8955H107.14V23.8167H97.4738V20.8955L97.4757 20.8974Z" fill="#4E5453"/>
<path d="M121.386 16.9669L115.385 5.22968H119.714L123.298 12.905H123.431L127.097 5.22968H131L125.024 16.9418V23.8206H121.386V16.9689V16.9669Z" fill="#4E5453"/>
</svg>
