<svg width="92" height="92" viewBox="0 0 92 92" fill="none" xmlns="http://www.w3.org/2000/svg">
<circle cx="46" cy="46" r="46" fill="white"/>
<path d="M26.8333 55.2392L26.8333 30.1763C26.8333 29.3871 27.4671 28.75 28.2466 28.75L53.1892 28.75C53.5624 28.75 53.9227 28.8996 54.1859 29.1653L64.7482 39.7842C65.6401 40.6818 65.0115 42.219 63.7516 42.219L41.7861 42.219C41.0067 42.219 40.3729 42.8561 40.3729 43.6453L40.3729 66.0103C40.3729 67.2793 38.8523 67.9164 37.963 67.0214L27.2499 56.2503C26.9841 55.982 26.8333 55.6184 26.8333 55.2392Z" fill="#911403"/>
<path d="M44.007 59.526L44.007 46.6348C44.007 46.2298 44.3316 45.9022 44.7328 45.9022L57.5594 45.9022C57.7511 45.9022 57.9351 45.9796 58.0731 46.1163L63.5063 51.5767C63.9663 52.0383 63.6417 52.8302 62.9926 52.8302L51.6968 52.8302C51.2956 52.8302 50.971 53.1578 50.971 53.5627L50.971 65.0637C50.971 65.7163 50.189 66.0438 49.7316 65.5822L44.2217 60.0419C44.0837 59.9052 44.007 59.7169 44.007 59.5234L44.007 59.526Z" fill="#911403"/>
</svg>
